{
  "accessors": [
    {
      "bufferView": 2,
      "componentType": 5126,
      "count": 16,
      "max": [
        0.70710676908493042,
        0.35355338454246521,
        0.70710676908493042
      ],
      "min": [
        -0.70710676908493042,
        -0.35355338454246521,
        -0.70710676908493042
      ],
      "type": "VEC3"
    },
    {
      "bufferView": 2,
      "byteOffset": 192,
      "componentType": 5126,
      "count": 16,
      "max": [
        0.57735031843185425,
        0.57735031843185425,
        0.57735031843185425
      ],
      "min": [
        -0.57735031843185425,
        -1,
        -0.57735031843185425
      ],
      "type": "VEC3"
    },
    {
      "bufferView": 0,
      "componentType": 5125,
      "count": 18,
      "max": [
        15
      ],
      "min": [
        0
      ],
      "type": "SCALAR"
    },
    {
      "bufferView": 2,
      "byteOffset": 384,
      "componentType": 5126,
      "count": 90,
      "max": [
        1,
        1,
        1.0000001192092896
      ],
      "min": [
        -1.0000002384185791,
        -1,
        -1.0000004768371582
      ],
      "type": "VEC3"
    },
    {
      "bufferView": 2,
      "byteOffset": 1464,
      "componentType": 5126,
      "count": 90,
      "max": [
        1,
        1,
        1
      ],
      "min": [
        -1,
        -1,
        -1
      ],
      "type": "VEC3"
    },
    {
      "bufferView": 3,
      "componentType": 5126,
      "count": 90,
      "max": [
        1,
        0,
        1,
        1
      ],
      "min": [
        -0.8090171217918396,
        0,
        -1,
        1
      ],
      "type": "VEC4"
    },
    {
      "bufferView": 1,
      "componentType": 5126,
      "count": 90,
      "max": [
        0.47736254334449768,
        0.95660924911499023
      ],
      "min": [
        0.035926811397075653,
        0.51002103090286255
      ],
      "type": "VEC2"
    },
    {
      "bufferView": 0,
      "byteOffset": 72,
      "componentType": 5125,
      "count": 240,
      "max": [
        89
      ],
      "min": [
        0
      ],
      "type": "SCALAR"
    },
    {
      "bufferView": 2,
      "byteOffset": 2544,
      "componentType": 5126,
      "count": 65,
      "max": [
        1,
        1,
        1.0000001192092896
      ],
      "min": [
        -1.0000002384185791,
        -1,
        -1.0000004768371582
      ],
      "type": "VEC3"
    },
    {
      "bufferView": 2,
      "byteOffset": 3324,
      "componentType": 5126,
      "count": 65,
      "max": [
        0.99863201379776001,
        0.066267192363739014,
        0.84163182973861694
      ],
      "min": [
        -0.99863201379776001,
        -0.99864691495895386,
        -1
      ],
      "type": "VEC3"
    },
    {
      "bufferView": 3,
      "byteOffset": 1440,
      "componentType": 5126,
      "count": 65,
      "max": [
        1,
        0.51838630437850952,
        0.99900567531585693,
        1
      ],
      "min": [
        -0.7538103461265564,
        -0.63752245903015137,
        -0.99897921085357666,
        1
      ],
      "type": "VEC4"
    },
    {
      "bufferView": 1,
      "byteOffset": 720,
      "componentType": 5126,
      "count": 65,
      "max": [
        0.98372173309326172,
        0.72983306646347046
      ],
      "min": [
        0.02070009708404541,
        0.0231209397315979
      ],
      "type": "VEC2"
    },
    {
      "bufferView": 0,
      "byteOffset": 1032,
      "componentType": 5125,
      "count": 180,
      "max": [
        64
      ],
      "min": [
        0
      ],
      "type": "SCALAR"
    },
    {
      "bufferView": 2,
      "byteOffset": 4104,
      "componentType": 5126,
      "count": 21,
      "max": [
        1,
        1,
        1.0000001192092896
      ],
      "min": [
        -1.0000002384185791,
        1,
        -1.0000004768371582
      ],
      "type": "VEC3"
    },
    {
      "bufferView": 2,
      "byteOffset": 4356,
      "componentType": 5126,
      "count": 21,
      "max": [
        0,
        1,
        0
      ],
      "min": [
        0,
        1,
        0
      ],
      "type": "VEC3"
    },
    {
      "bufferView": 3,
      "byteOffset": 2480,
      "componentType": 5126,
      "count": 21,
      "max": [
        1,
        0,
        9.5795837751211366e-07,
        1
      ],
      "min": [
        1,
        0,
        -1.0668132972568856e-06,
        1
      ],
      "type": "VEC4"
    },
    {
      "bufferView": 1,
      "byteOffset": 1240,
      "componentType": 5126,
      "count": 21,
      "max": [
        0.55738562345504761,
        0.72983306646347046
      ],
      "min": [
        0.41895723342895508,
        0.59140461683273315
      ],
      "type": "VEC2"
    },
    {
      "bufferView": 0,
      "byteOffset": 1752,
      "componentType": 5125,
      "count": 60,
      "max": [
        20
      ],
      "min": [
        0
      ],
      "type": "SCALAR"
    }
  ],
  "asset": {
    "extras": {
      "author": "Jackmcm (https://sketchfab.com/Jackmcm)",
      "license": "CC-BY-4.0 (http://creativecommons.org/licenses/by/4.0/)",
      "source": "https://sketchfab.com/3d-models/reflectionrefraction-prism-8f3a8a2168ed4a47ac8328e24e88147b",
      "title": "Reflection/Refraction Prism"
    },
    "generator": "Sketchfab-7.8.0",
    "version": "2.0"
  },
  "bufferViews": [
    {
      "buffer": 0,
      "byteLength": 1992,
      "byteOffset": 0,
      "name": "floatBufferViews",
      "target": 34963
    },
    {
      "buffer": 0,
      "byteLength": 1408,
      "byteOffset": 1992,
      "byteStride": 8,
      "name": "floatBufferViews",
      "target": 34962
    },
    {
      "buffer": 0,
      "byteLength": 4608,
      "byteOffset": 3400,
      "byteStride": 12,
      "name": "floatBufferViews",
      "target": 34962
    },
    {
      "buffer": 0,
      "byteLength": 2816,
      "byteOffset": 8008,
      "byteStride": 16,
      "name": "floatBufferViews",
      "target": 34962
    }
  ],
  "buffers": [
    {
      "byteLength": 10824,
      "uri": "scene.bin"
    }
  ],
  "images": [
    {
      "uri": "textures/blinn1_baseColor.jpeg"
    }
  ],
  "materials": [
    {
      "alphaMode": "BLEND",
      "doubleSided": true,
      "emissiveFactor": [
        0,
        0,
        0
      ],
      "name": "blinn2",
      "pbrMetallicRoughness": {
        "baseColorFactor": [
          1,
          1,
          1,
          0.42244664634146339
        ],
        "metallicFactor": 0.16634908536585366,
        "roughnessFactor": 0
      }
    },
    {
      "doubleSided": true,
      "emissiveFactor": [
        1,
        1,
        1
      ],
      "name": "blinn3",
      "pbrMetallicRoughness": {
        "baseColorFactor": [
          1,
          1,
          1,
          1
        ],
        "metallicFactor": 0,
        "roughnessFactor": 0
      }
    },
    {
      "doubleSided": true,
      "emissiveFactor": [
        1,
        1,
        1
      ],
      "emissiveTexture": {
        "index": 0,
        "texCoord": 0
      },
      "name": "blinn1",
      "pbrMetallicRoughness": {
        "baseColorFactor": [
          1,
          1,
          1,
          1
        ],
        "baseColorTexture": {
          "index": 0,
          "texCoord": 0
        },
        "metallicFactor": 0,
        "roughnessFactor": 0
      }
    },
    {
      "doubleSided": true,
      "emissiveFactor": [
        0,
        0,
        0
      ],
      "name": "lambert1",
      "pbrMetallicRoughness": {
        "baseColorFactor": [
          0.5,
          0.5,
          0.5,
          1
        ],
        "metallicFactor": 0,
        "roughnessFactor": 0.59999999999999998
      }
    }
  ],
  "meshes": [
    {
      "name": "pPyramid1_blinn2_0",
      "primitives": [
        {
          "attributes": {
            "NORMAL": 1,
            "POSITION": 0
          },
          "indices": 2,
          "material": 0,
          "mode": 4
        }
      ]
    },
    {
      "name": "pCylinder1_blinn3_0",
      "primitives": [
        {
          "attributes": {
            "NORMAL": 4,
            "POSITION": 3,
            "TANGENT": 5,
            "TEXCOORD_0": 6
          },
          "indices": 7,
          "material": 1,
          "mode": 4
        }
      ]
    },
    {
      "name": "pCylinder2_blinn1_0",
      "primitives": [
        {
          "attributes": {
            "NORMAL": 9,
            "POSITION": 8,
            "TANGENT": 10,
            "TEXCOORD_0": 11
          },
          "indices": 12,
          "material": 2,
          "mode": 4
        }
      ]
    },
    {
      "name": "pCylinder2_lambert1_0",
      "primitives": [
        {
          "attributes": {
            "NORMAL": 14,
            "POSITION": 13,
            "TANGENT": 15,
            "TEXCOORD_0": 16
          },
          "indices": 17,
          "material": 3,
          "mode": 4
        }
      ]
    }
  ],
  "nodes": [
    {
      "children": [
        1
      ],
      "name": "RootNode (gltf orientation matrix)",
      "rotation": [
        -0.70710678118654746,
        -0,
        -0,
        0.70710678118654757
      ]
    },
    {
      "children": [
        2
      ],
      "name": "RootNode (model correction matrix)"
    },
    {
      "children": [
        3
      ],
      "matrix": [
        1,
        0,
        0,
        0,
        0,
        0,
        1,
        0,
        0,
        -1,
        0,
        0,
        0,
        0,
        0,
        1
      ],
      "name": "ee9222161b5e45f8a5bf533a4127ddf4.fbx"
    },
    {
      "children": [
        4,
        6,
        8
      ],
      "name": "RootNode"
    },
    {
      "children": [
        5
      ],
      "matrix": [
        0.70406467329988398,
        0,
        -0.71013585729149575,
        0,
        0,
        1,
        0,
        0,
        0.71013585729149575,
        0,
        0.70406467329988398,
        0,
        0,
        0.44743645191192627,
        0,
        1
      ],
      "name": "pPyramid1"
    },
    {
      "mesh": 0,
      "name": "pPyramid1_blinn2_0"
    },
    {
      "children": [
        7
      ],
      "matrix": [
        -0.051990542560815811,
        6.3670051533037316e-18,
        0,
        0,
        -7.7029758145712392e-17,
        -0.62899570879818978,
        -1.7305307043382474,
        0,
        -5.9839895521194233e-18,
        -0.048862982831341321,
        0.01776022028557199,
        0,
        0,
        0.98551845550537109,
        1.6510134935379028,
        1
      ],
      "name": "pCylinder1"
    },
    {
      "mesh": 1,
      "name": "pCylinder1_blinn3_0"
    },
    {
      "children": [
        9,
        10
      ],
      "matrix": [
        -0.051990542560815811,
        6.3670051533037316e-18,
        0,
        0,
        7.7289106597944317e-17,
        0.63111344962283011,
        -1.4462723316912593,
        0,
        -1.7070105538538884e-17,
        -0.1393879896670922,
        -0.060825083262098345,
        0,
        0,
        0.88334739208221436,
        -1.4094184637069702,
        1
      ],
      "name": "pCylinder2"
    },
    {
      "mesh": 2,
      "name": "pCylinder2_blinn1_0"
    },
    {
      "mesh": 3,
      "name": "pCylinder2_lambert1_0"
    }
  ],
  "samplers": [
    {
      "magFilter": 9729,
      "minFilter": 9987,
      "wrapS": 10497,
      "wrapT": 10497
    }
  ],
  "scene": 0,
  "scenes": [
    {
      "name": "OSG_Scene",
      "nodes": [
        0
      ]
    }
  ],
  "textures": [
    {
      "sampler": 0,
      "source": 0
    }
  ]
}

